<?xml version="1.0" encoding="UTF-8" standalone="no"?>
<!-- Created with Inkscape (http://www.inkscape.org/) -->

<svg
   width="1920px"
   height="1080px"
   viewBox="0 0 1920 1080"
   version="1.1"
   id="SVGRoot"
   sodipodi:docname="missingthumb.svg"
   inkscape:version="1.2.1 (9c6d41e410, 2022-07-14, custom)"
   xmlns:inkscape="http://www.inkscape.org/namespaces/inkscape"
   xmlns:sodipodi="http://sodipodi.sourceforge.net/DTD/sodipodi-0.dtd"
   xmlns="http://www.w3.org/2000/svg"
   xmlns:svg="http://www.w3.org/2000/svg">
  <sodipodi:namedview
     id="namedview261"
     pagecolor="#ffffff"
     bordercolor="#111111"
     borderopacity="1"
     inkscape:showpageshadow="0"
     inkscape:pageopacity="0"
     inkscape:pagecheckerboard="1"
     inkscape:deskcolor="#d1d1d1"
     inkscape:document-units="px"
     showgrid="false"
     inkscape:zoom="1.131351"
     inkscape:cx="775.1794"
     inkscape:cy="769.87601"
     inkscape:window-width="3800"
     inkscape:window-height="2083"
     inkscape:window-x="0"
     inkscape:window-y="0"
     inkscape:window-maximized="1"
     inkscape:current-layer="layer1" />
  <defs
     id="defs256">
    <rect
       x="584.0984"
       y="402.62634"
       width="848.7709"
       height="199.34339"
       id="rect1128" />
  </defs>
  <g
     inkscape:label="Layer 1"
     inkscape:groupmode="layer"
     id="layer1">
    <rect
       style="fill:#000000;stroke-width:15;stroke-linecap:round"
       id="rect554"
       width="1920"
       height="1080"
       x="0"
       y="0" />
    <path
       id="rect776"
       style="fill:#d8d8d8;stroke-width:8.14797;stroke-linecap:round"
       sodipodi:type="inkscape:offset"
       inkscape:radius="0"
       inkscape:original="M 40 40 L 40 220 L 220 220 L 220 40 L 40 40 z "
       d="M 40,40 V 220 H 220 V 40 Z"
       transform="matrix(0.83333333,0,0,0.83333333,46.666667,46.666667)" />
    <path
       id="rect776-1"
       style="fill:#d8d8d8;stroke-width:8.14797;stroke-linecap:round"
       sodipodi:type="inkscape:offset"
       inkscape:radius="0"
       inkscape:original="M 40 40 L 40 220 L 220 220 L 220 40 L 40 40 z "
       d="M 40,40 V 220 H 220 V 40 Z"
       transform="matrix(0.83333333,0,0,0.83333333,276.66667,46.666667)" />
    <path
       id="rect776-2"
       style="fill:#d8d8d8;stroke-width:8.14797;stroke-linecap:round"
       sodipodi:type="inkscape:offset"
       inkscape:radius="0"
       inkscape:original="M 40 40 L 40 220 L 220 220 L 220 40 L 40 40 z "
       d="M 40,40 V 220 H 220 V 40 Z"
       transform="matrix(0.83333332,0,0,0.83333333,506.66667,46.666667)" />
    <path
       id="rect776-1-7"
       style="fill:#d8d8d8;stroke-width:8.14797;stroke-linecap:round"
       sodipodi:type="inkscape:offset"
       inkscape:radius="0"
       inkscape:original="M 40 40 L 40 220 L 220 220 L 220 40 L 40 40 z "
       d="M 40,40 V 220 H 220 V 40 Z"
       transform="matrix(0.83333332,0,0,0.83333333,736.66667,46.666667)" />
    <path
       id="rect776-0"
       style="fill:#d8d8d8;stroke-width:8.14797;stroke-linecap:round"
       sodipodi:type="inkscape:offset"
       inkscape:radius="0"
       inkscape:original="M 40 40 L 40 220 L 220 220 L 220 40 L 40 40 z "
       d="M 40,40 V 220 H 220 V 40 Z"
       transform="matrix(0.83333333,0,0,0.83333333,966.66667,46.666667)" />
    <path
       id="rect776-1-9"
       style="fill:#d8d8d8;stroke-width:8.14797;stroke-linecap:round"
       sodipodi:type="inkscape:offset"
       inkscape:radius="0"
       inkscape:original="M 40 40 L 40 220 L 220 220 L 220 40 L 40 40 z "
       d="M 40,40 V 220 H 220 V 40 Z"
       transform="matrix(0.83333333,0,0,0.83333333,1196.6667,46.666667)" />
    <path
       id="rect776-2-3"
       style="fill:#d8d8d8;stroke-width:8.14797;stroke-linecap:round"
       sodipodi:type="inkscape:offset"
       inkscape:radius="0"
       inkscape:original="M 40 40 L 40 220 L 220 220 L 220 40 L 40 40 z "
       d="M 40,40 V 220 H 220 V 40 Z"
       transform="matrix(0.83333332,0,0,0.83333333,1426.6667,46.666667)" />
    <path
       id="rect776-1-7-6"
       style="fill:#d8d8d8;stroke-width:8.14797;stroke-linecap:round"
       sodipodi:type="inkscape:offset"
       inkscape:radius="0"
       inkscape:original="M 40 40 L 40 220 L 220 220 L 220 40 L 40 40 z "
       d="M 40,40 V 220 H 220 V 40 Z"
       transform="matrix(0.83333332,0,0,0.83333333,1656.6667,46.666667)" />
    <path
       id="rect776-06"
       style="fill:#d8d8d8;stroke-width:8.14797;stroke-linecap:round"
       sodipodi:type="inkscape:offset"
       inkscape:radius="0"
       inkscape:original="M 40 40 L 40 220 L 220 220 L 220 40 L 40 40 z "
       d="M 40,40 V 220 H 220 V 40 Z"
       transform="matrix(0.83333333,0,0,0.83333333,46.666667,816.66667)" />
    <path
       id="rect776-1-2"
       style="fill:#d8d8d8;stroke-width:8.14797;stroke-linecap:round"
       sodipodi:type="inkscape:offset"
       inkscape:radius="0"
       inkscape:original="M 40 40 L 40 220 L 220 220 L 220 40 L 40 40 z "
       d="M 40,40 V 220 H 220 V 40 Z"
       transform="matrix(0.83333333,0,0,0.83333333,276.66664,816.66667)" />
    <path
       id="rect776-2-6"
       style="fill:#d8d8d8;stroke-width:8.14797;stroke-linecap:round"
       sodipodi:type="inkscape:offset"
       inkscape:radius="0"
       inkscape:original="M 40 40 L 40 220 L 220 220 L 220 40 L 40 40 z "
       d="M 40,40 V 220 H 220 V 40 Z"
       transform="matrix(0.83333332,0,0,0.83333333,506.66664,816.66667)" />
    <path
       id="rect776-1-7-1"
       style="fill:#d8d8d8;stroke-width:8.14797;stroke-linecap:round"
       sodipodi:type="inkscape:offset"
       inkscape:radius="0"
       inkscape:original="M 40 40 L 40 220 L 220 220 L 220 40 L 40 40 z "
       d="M 40,40 V 220 H 220 V 40 Z"
       transform="matrix(0.83333332,0,0,0.83333333,736.66664,816.66667)" />
    <path
       id="rect776-0-8"
       style="fill:#d8d8d8;stroke-width:8.14797;stroke-linecap:round"
       sodipodi:type="inkscape:offset"
       inkscape:radius="0"
       inkscape:original="M 40 40 L 40 220 L 220 220 L 220 40 L 40 40 z "
       d="M 40,40 V 220 H 220 V 40 Z"
       transform="matrix(0.83333333,0,0,0.83333333,966.66664,816.66667)" />
    <path
       id="rect776-1-9-7"
       style="fill:#d8d8d8;stroke-width:8.14797;stroke-linecap:round"
       sodipodi:type="inkscape:offset"
       inkscape:radius="0"
       inkscape:original="M 40 40 L 40 220 L 220 220 L 220 40 L 40 40 z "
       d="M 40,40 V 220 H 220 V 40 Z"
       transform="matrix(0.83333333,0,0,0.83333333,1196.6668,816.66667)" />
    <path
       id="rect776-2-3-9"
       style="fill:#d8d8d8;stroke-width:8.14797;stroke-linecap:round"
       sodipodi:type="inkscape:offset"
       inkscape:radius="0"
       inkscape:original="M 40 40 L 40 220 L 220 220 L 220 40 L 40 40 z "
       d="M 40,40 V 220 H 220 V 40 Z"
       transform="matrix(0.83333332,0,0,0.83333333,1426.6668,816.66667)" />
    <path
       id="rect776-1-7-6-2"
       style="fill:#d8d8d8;stroke-width:8.14797;stroke-linecap:round"
       sodipodi:type="inkscape:offset"
       inkscape:radius="0"
       inkscape:original="M 40 40 L 40 220 L 220 220 L 220 40 L 40 40 z "
       d="M 40,40 V 220 H 220 V 40 Z"
       transform="matrix(0.83333332,0,0,0.83333333,1656.6668,816.66667)" />
    <path
       sodipodi:type="star"
       style="fill:#d8d8d8;stroke-width:15;stroke-linecap:round"
       id="path1184"
       inkscape:flatsided="false"
       sodipodi:sides="3"
       sodipodi:cx="661.38086"
       sodipodi:cy="373.84094"
       sodipodi:r1="128.78654"
       sodipodi:r2="64.393272"
       sodipodi:arg1="0"
       sodipodi:arg2="1.0471976"
       inkscape:rounded="0"
       inkscape:randomized="0"
       d="m 790.1674,373.84094 -96.58991,55.76621 -96.5899,55.76621 0,-111.53242 0,-111.53242 96.58991,55.76621 z"
       inkscape:transform-center-x="-44.999992"
       transform="matrix(1.3976615,0,0,1.3976615,-9.3865628,17.496908)"
       inkscape:transform-center-y="-2.0381152e-06" />
  </g>
</svg>
