<svg xmlns="http://www.w3.org/2000/svg" width="1920" height="1080"><path d="M0 0h1920v1080H0z" style="fill:#000;stroke-width:15;stroke-linecap:round"/><path d="M40 40v180h180V40Z" style="fill:#d8d8d8;stroke-width:8.14797;stroke-linecap:round" transform="matrix(.83333 0 0 .83333 46.667 46.667)"/><path d="M40 40v180h180V40Z" style="fill:#d8d8d8;stroke-width:8.14797;stroke-linecap:round" transform="matrix(.83333 0 0 .83333 276.667 46.667)"/><path d="M40 40v180h180V40Z" style="fill:#d8d8d8;stroke-width:8.14797;stroke-linecap:round" transform="matrix(.83333 0 0 .83333 506.667 46.667)"/><path d="M40 40v180h180V40Z" style="fill:#d8d8d8;stroke-width:8.14797;stroke-linecap:round" transform="matrix(.83333 0 0 .83333 736.667 46.667)"/><path d="M40 40v180h180V40Z" style="fill:#d8d8d8;stroke-width:8.14797;stroke-linecap:round" transform="matrix(.83333 0 0 .83333 966.667 46.667)"/><path d="M40 40v180h180V40Z" style="fill:#d8d8d8;stroke-width:8.14797;stroke-linecap:round" transform="matrix(.83333 0 0 .83333 1196.667 46.667)"/><path d="M40 40v180h180V40Z" style="fill:#d8d8d8;stroke-width:8.14797;stroke-linecap:round" transform="matrix(.83333 0 0 .83333 1426.667 46.667)"/><path d="M40 40v180h180V40Z" style="fill:#d8d8d8;stroke-width:8.14797;stroke-linecap:round" transform="matrix(.83333 0 0 .83333 1656.667 46.667)"/><path d="M40 40v180h180V40Z" style="fill:#d8d8d8;stroke-width:8.14797;stroke-linecap:round" transform="matrix(.83333 0 0 .83333 46.667 816.667)"/><path d="M40 40v180h180V40Z" style="fill:#d8d8d8;stroke-width:8.14797;stroke-linecap:round" transform="matrix(.83333 0 0 .83333 276.667 816.667)"/><path d="M40 40v180h180V40Z" style="fill:#d8d8d8;stroke-width:8.14797;stroke-linecap:round" transform="matrix(.83333 0 0 .83333 506.667 816.667)"/><path d="M40 40v180h180V40Z" style="fill:#d8d8d8;stroke-width:8.14797;stroke-linecap:round" transform="matrix(.83333 0 0 .83333 736.667 816.667)"/><path d="M40 40v180h180V40Z" style="fill:#d8d8d8;stroke-width:8.14797;stroke-linecap:round" transform="matrix(.83333 0 0 .83333 966.667 816.667)"/><path d="M40 40v180h180V40Z" style="fill:#d8d8d8;stroke-width:8.14797;stroke-linecap:round" transform="matrix(.83333 0 0 .83333 1196.667 816.667)"/><path d="M40 40v180h180V40Z" style="fill:#d8d8d8;stroke-width:8.14797;stroke-linecap:round" transform="matrix(.83333 0 0 .83333 1426.667 816.667)"/><path d="M40 40v180h180V40Z" style="fill:#d8d8d8;stroke-width:8.14797;stroke-linecap:round" transform="matrix(.83333 0 0 .83333 1656.667 816.667)"/><path d="m790.167 373.84-96.59 55.767-96.59 55.766V262.31l96.59 55.766z" style="fill:#d8d8d8;stroke-width:15;stroke-linecap:round" transform="translate(-9.387 17.497) scale(1.39766)"/></svg>